<svg width="29" height="23" viewBox="0 0 29 23" fill="none" xmlns="http://www.w3.org/2000/svg">
<path d="M23.626 0.5C26.1111 0.50014 28.126 2.5148 28.126 5V18C28.126 20.4852 26.1111 22.4999 23.626 22.5H4.87402C2.38878 22.5 0.374023 20.4853 0.374023 18V5C0.374023 2.51475 2.38878 0.500046 4.87402 0.5H23.626ZM16.0723 13.6709C14.8054 14.3043 13.3137 14.3043 12.0469 13.6709L3.37402 9.33398V18C3.37402 18.8284 4.04564 19.5 4.87402 19.5H23.626C24.4543 19.4999 25.126 18.8283 25.126 18V9.14355L16.0723 13.6709ZM4.87402 3.5C4.04564 3.50005 3.37402 4.1716 3.37402 5V5.97949L13.3887 10.9873C13.811 11.1984 14.3082 11.1984 14.7305 10.9873L25.126 5.78906V5C25.126 4.17166 24.4543 3.50014 23.626 3.5H4.87402Z" fill="#1E1E1E"/>
</svg>
