<svg width="20" height="22" viewBox="0 0 20 22" fill="none" xmlns="http://www.w3.org/2000/svg">
<path d="M2.73098 0.37071C3.7662 -0.340471 5.13773 0.0291848 5.9468 0.989851L8.43588 3.94495C9.06689 4.69411 9.07318 5.78694 8.45085 6.54331C8.12967 6.93368 7.67346 7.19035 7.17318 7.26289C5.62703 7.48708 4.88907 9.29291 5.84052 10.5321L8.02981 13.3834L10.5504 16.0445C11.4223 16.965 12.9724 16.4341 13.0969 15.1723C13.1448 14.6871 13.4286 14.2566 13.8558 14.0214L14.2595 13.7992C15.2433 13.2577 16.4726 13.4863 17.196 14.3452L18.7134 16.1471C19.7331 17.3579 19.776 19.1892 18.4712 20.0856C13.8217 23.2791 8.13041 20.8575 4.03566 14.8971C-0.0590848 8.93653 -1.91819 3.56494 2.73098 0.37071Z" fill="#1E1E1E"/>
</svg>
